<svg width="179" height="107" viewBox="0 0 179 107" fill="none" xmlns="http://www.w3.org/2000/svg">
<g clip-path="url(#clip0_64_108)">
<mask id="mask0_64_108" style="mask-type:luminance" maskUnits="userSpaceOnUse" x="0" y="0" width="179" height="107">
<path d="M179 0H0V107H179V0Z" fill="white"/>
</mask>
<g mask="url(#mask0_64_108)">
<path d="M51.7317 100.938C48.5 100.938 46.2456 100.094 44.9608 98.3992C43.676 96.7118 43.006 94.376 42.935 91.4075H55.7123C58.8022 91.4075 60.8043 90.9231 61.7265 89.9467C62.6409 88.9702 63.0981 87.3375 63.0981 85.0408C63.0981 80.4083 62.0182 77.0257 59.8663 74.8774C57.7144 72.737 54.2541 71.6589 49.4931 71.6589C44.1568 71.6589 39.9003 73.3463 36.7316 76.7132C33.5629 80.088 31.9707 84.7517 31.9707 90.72C31.9707 96.6884 33.3816 100.579 36.1956 103.079C39.0096 105.578 43.5341 106.82 49.7611 106.82C53.3791 106.82 56.5321 106.461 59.2278 105.75C61.9157 105.031 63.2636 103.774 63.2636 101.954C63.2636 100.618 62.6645 99.3678 61.4743 98.2117C58.1322 100.024 54.8768 100.938 51.716 100.938H51.7317ZM44.2435 79.5959C45.1342 78.2366 46.4269 77.5491 48.1216 77.5491C49.7217 77.5491 50.975 78.1116 51.8657 79.2365C52.7564 80.3614 53.2057 81.9394 53.2057 83.9862C53.2057 84.8064 53.0875 85.3845 52.8589 85.736C52.6303 86.0876 51.8421 86.3375 50.51 86.486C49.17 86.6344 47.2309 86.7047 44.6849 86.7047H42.8641C42.8877 83.3221 43.3449 80.9551 44.2356 79.588L44.2435 79.5959Z" fill="#231F20"/>
<path d="M26.2797 71.698C24.4904 71.698 22.4331 71.9949 20.1 72.5807C17.7668 73.1745 15.1499 74.3072 12.2649 75.9867C12.3832 74.3072 12.3832 72.987 12.2649 72.0339C5.30481 72.237 1.52129 72.4636 0.914351 72.7136C0.307411 72.9713 0 73.5026 0 74.3228C0 75.229 0.204941 76.143 0.614822 77.0492C2.12823 77.0492 3.18446 77.6273 3.7914 78.7834C4.39834 79.9396 4.69787 83.6971 4.69787 90.0482C4.69787 94.4541 4.6427 98.3211 4.52446 101.657H2.01788C1.30847 101.657 0.796116 101.813 0.47294 102.118C0.157647 102.422 0 102.93 0 103.633C0 104.477 0.204941 105.367 0.614822 106.32H18.1373C19.0989 106.32 19.7453 106.164 20.0763 105.844C20.4074 105.524 20.5729 104.969 20.5729 104.172C20.5729 103.243 20.368 102.399 19.9502 101.649H14.5587C14.4404 98.3132 14.3853 94.3448 14.3853 89.7357C14.3853 84.6971 14.8346 81.5723 15.741 80.3536C16.6475 79.1428 17.9481 78.5334 19.6428 78.5334C20.7384 79.963 21.3848 80.7208 21.5818 80.8145C21.7789 80.9083 22.4804 80.8614 23.6943 80.6817C24.9082 80.502 25.791 80.213 26.3585 79.8302C26.9182 79.4474 27.3911 78.5725 27.7695 77.2288C28.1478 75.8774 28.337 74.5806 28.337 73.3307C28.337 72.6276 28.1951 72.1823 27.9271 71.987C27.6512 71.7917 27.0995 71.698 26.2797 71.698Z" fill="#231F20"/>
<path d="M120.23 71.6667C114.531 71.6667 110.101 73.401 106.956 76.8617C103.811 80.3224 102.234 85.197 102.234 91.4856C102.234 96.5243 103.535 100.368 106.136 103.024C108.737 105.68 112.6 107.008 117.731 107.008C123.43 107.008 127.852 105.274 130.989 101.813C134.126 98.3523 135.695 93.4777 135.695 87.1891C135.695 82.1504 134.402 78.3069 131.817 75.6508C129.231 72.9948 125.369 71.6667 120.238 71.6667H120.23ZM123.469 98.9148C122.563 100.376 121.184 101.11 119.331 101.11C117.179 101.11 115.603 100.126 114.61 98.1492C113.616 96.1728 113.112 92.884 113.112 88.2749C113.112 84.0565 113.561 81.2129 114.468 79.7443C115.374 78.2756 116.754 77.5491 118.606 77.5491C120.758 77.5491 122.334 78.5334 123.328 80.5099C124.321 82.4863 124.817 85.7751 124.817 90.3841C124.817 94.6026 124.368 97.4461 123.462 98.9148H123.469Z" fill="#231F20"/>
<path d="M178.488 101.657C177.116 101.68 176.218 101.258 175.808 100.383C175.398 99.5085 175.193 93.4855 175.193 82.3222C175.193 78.0569 174.413 75.2212 172.844 73.815C171.276 72.4089 168.879 71.7058 165.648 71.7058C164.087 71.7058 162.164 72.0261 159.862 72.6745C157.56 73.3229 155.164 74.4165 152.665 75.9633C152.784 74.3072 152.784 73.0026 152.665 72.0495C145.705 72.2526 141.922 72.4792 141.315 72.7292C140.708 72.9792 140.4 73.5104 140.4 74.3306C140.4 75.2368 140.605 76.1508 141.015 77.057C142.529 77.057 143.585 77.6351 144.192 78.7912C144.799 79.9474 145.106 83.7049 145.106 90.056C145.106 94.0479 145.051 97.9226 144.933 101.665H142.426C141.717 101.665 141.204 101.821 140.881 102.125C140.558 102.43 140.4 102.938 140.4 103.641C140.4 104.485 140.605 105.375 141.015 106.328H157.198C158.159 106.328 158.806 106.172 159.137 105.852C159.468 105.531 159.633 104.977 159.633 104.18C159.633 103.25 159.436 102.407 159.05 101.657H154.959C154.849 98.3211 154.786 95.2197 154.786 92.3606V85.5173C154.786 82.5175 155.259 80.5489 156.197 79.6115C157.135 78.6662 158.419 78.1975 160.043 78.1975C161.966 78.1975 163.362 78.9865 164.213 80.5645C165.072 82.1425 165.498 85.2439 165.498 89.8764V101.891C165.498 103.368 165.679 104.414 166.05 105.039C166.412 105.664 167.09 106.031 168.075 106.149C169.061 106.266 171.41 106.32 175.114 106.32C176.628 106.32 177.652 106.172 178.188 105.875C178.724 105.578 178.992 105.024 178.992 104.203C178.992 103.321 178.819 102.469 178.48 101.649L178.488 101.657Z" fill="#231F20"/>
<path d="M88.7161 53.3399C89.7644 53.3399 90.6078 52.504 90.6078 51.465V46.5747H102.952L107.602 54.5585C108.17 55.6053 109.21 56.2459 110.345 56.2459C111.48 56.2459 112.521 55.6053 113.088 54.5585L117.731 46.5747H125.219C127.749 46.5747 129.807 44.5671 129.807 42.0907V10.4289C129.807 7.96036 127.749 5.94488 125.219 5.94488H90.6V1.87486C90.6078 0.835877 89.7644 0 88.7161 0H38.7736C37.7331 0 36.8818 0.835877 36.8818 1.87486V51.465C36.8818 52.504 37.7252 53.3399 38.7736 53.3399H59.0312L64.0838 63.2298C64.5567 64.1516 65.3213 64.1516 65.7943 63.2298L70.8468 53.3399H88.7082H88.7161ZM90.6078 11.4132H124.297V41.1064H114.547L110.345 48.3324L106.144 41.1064H90.6157V11.4132H90.6078ZM55.2398 40.4502C54.3333 40.9658 53.5924 40.5361 53.5924 39.5049V13.8349C53.5924 12.7959 54.3254 12.3741 55.2398 12.8897L77.9803 25.7403C78.4296 25.9981 78.6582 26.334 78.6582 26.6699C78.6582 27.0058 78.4296 27.3418 77.9803 27.5995L55.2398 40.4502Z" fill="#231F20"/>
<path d="M86.256 86.0954C82.9769 84.9392 80.8881 83.9862 79.9895 83.2362C79.083 82.4863 78.6338 81.6035 78.6338 80.5802C78.6338 79.5568 78.9727 78.8537 79.6427 78.3303C80.3206 77.8069 81.3532 77.5491 82.7483 77.5491C85.381 77.5491 89.1724 78.6272 94.1147 80.7833C95.4231 79.1271 96.0695 77.4944 96.0695 75.8852C96.0695 74.3619 95.1315 73.2838 93.2555 72.6354C91.3795 71.987 88.7074 71.6667 85.2549 71.6667C80.1945 71.6667 76.2375 72.6276 73.3841 74.5415C70.5307 76.4633 69.104 79.0334 69.104 82.2519C69.104 84.5408 69.8213 86.4235 71.248 87.8843C72.6826 89.3451 75.0631 90.7122 78.413 91.9856C81.5266 93.1652 83.7888 94.1417 85.1997 94.9151C86.6107 95.6884 87.3122 96.7196 87.3122 98.0164C87.3122 99.1257 86.9102 99.9225 86.1141 100.399C85.3101 100.876 84.1908 101.118 82.7483 101.118C79.2249 101.118 75.1813 100.157 70.6253 98.2273C69.506 99.5866 68.9385 100.977 68.9385 102.383C68.9621 104.266 69.9159 105.508 71.7919 106.11C73.6679 106.711 76.8208 107.016 81.2428 107.016C86.0274 107.016 89.8267 106.11 92.6328 104.289C95.4389 102.477 96.842 99.86 96.842 96.4618C96.842 93.9464 96.038 91.9153 94.4221 90.3685C92.8062 88.8217 90.0868 87.4078 86.2639 86.111L86.256 86.0954Z" fill="#231F20"/>
<path d="M51.7317 100.938C48.5 100.938 46.2456 100.094 44.9608 98.3992C43.676 96.7118 43.006 94.376 42.935 91.4075H55.7123C58.8022 91.4075 60.8043 90.9231 61.7265 89.9467C62.6409 88.9702 63.0981 87.3375 63.0981 85.0408C63.0981 80.4083 62.0182 77.0257 59.8663 74.8774C57.7144 72.737 54.2541 71.6589 49.4931 71.6589C44.1568 71.6589 39.9003 73.3463 36.7316 76.7132C33.5629 80.088 31.9707 84.7517 31.9707 90.72C31.9707 96.6884 33.3816 100.579 36.1956 103.079C39.0096 105.578 43.5341 106.82 49.7611 106.82C53.3791 106.82 56.5321 106.461 59.2278 105.75C61.9157 105.031 63.2636 103.774 63.2636 101.954C63.2636 100.618 62.6645 99.3678 61.4743 98.2117C58.1322 100.024 54.8768 100.938 51.716 100.938H51.7317ZM44.2435 79.5959C45.1342 78.2366 46.4269 77.5491 48.1216 77.5491C49.7217 77.5491 50.975 78.1116 51.8657 79.2365C52.7564 80.3614 53.2057 81.9394 53.2057 83.9862C53.2057 84.8064 53.0875 85.3845 52.8589 85.736C52.6303 86.0876 51.8421 86.3375 50.51 86.486C49.17 86.6344 47.2309 86.7047 44.6849 86.7047H42.8641C42.8877 83.3221 43.3449 80.9551 44.2356 79.588L44.2435 79.5959Z" fill="#231F20"/>
<path d="M26.2797 71.698C24.4904 71.698 22.4331 71.9949 20.1 72.5807C17.7668 73.1745 15.1499 74.3072 12.2649 75.9867C12.3832 74.3072 12.3832 72.987 12.2649 72.0339C5.30481 72.237 1.52129 72.4636 0.914351 72.7136C0.307411 72.9713 0 73.5026 0 74.3228C0 75.229 0.204941 76.143 0.614822 77.0492C2.12823 77.0492 3.18446 77.6273 3.7914 78.7834C4.39834 79.9396 4.69787 83.6971 4.69787 90.0482C4.69787 94.4541 4.6427 98.3211 4.52446 101.657H2.01788C1.30847 101.657 0.796116 101.813 0.47294 102.118C0.157647 102.422 0 102.93 0 103.633C0 104.477 0.204941 105.367 0.614822 106.32H18.1373C19.0989 106.32 19.7453 106.164 20.0763 105.844C20.4074 105.524 20.5729 104.969 20.5729 104.172C20.5729 103.243 20.368 102.399 19.9502 101.649H14.5587C14.4404 98.3132 14.3853 94.3448 14.3853 89.7357C14.3853 84.6971 14.8346 81.5723 15.741 80.3536C16.6475 79.1428 17.9481 78.5334 19.6428 78.5334C20.7384 79.963 21.3848 80.7208 21.5818 80.8145C21.7789 80.9083 22.4804 80.8614 23.6943 80.6817C24.9082 80.502 25.791 80.213 26.3585 79.8302C26.9182 79.4474 27.3911 78.5725 27.7695 77.2288C28.1478 75.8774 28.337 74.5806 28.337 73.3307C28.337 72.6276 28.1951 72.1823 27.9271 71.987C27.6512 71.7917 27.0995 71.698 26.2797 71.698Z" fill="#231F20"/>
<path d="M120.23 71.6667C114.531 71.6667 110.101 73.401 106.956 76.8617C103.811 80.3224 102.234 85.197 102.234 91.4856C102.234 96.5243 103.535 100.368 106.136 103.024C108.737 105.68 112.6 107.008 117.731 107.008C123.43 107.008 127.852 105.274 130.989 101.813C134.126 98.3523 135.695 93.4777 135.695 87.1891C135.695 82.1504 134.402 78.3069 131.817 75.6508C129.231 72.9948 125.369 71.6667 120.238 71.6667H120.23ZM123.469 98.9148C122.563 100.376 121.184 101.11 119.331 101.11C117.179 101.11 115.603 100.126 114.61 98.1492C113.616 96.1728 113.112 92.884 113.112 88.2749C113.112 84.0565 113.561 81.2129 114.468 79.7443C115.374 78.2756 116.754 77.5491 118.606 77.5491C120.758 77.5491 122.334 78.5334 123.328 80.5099C124.321 82.4863 124.817 85.7751 124.817 90.3841C124.817 94.6026 124.368 97.4461 123.462 98.9148H123.469Z" fill="#231F20"/>
<path d="M178.488 101.657C177.116 101.68 176.218 101.258 175.808 100.383C175.398 99.5085 175.193 93.4855 175.193 82.3222C175.193 78.0569 174.413 75.2212 172.844 73.815C171.276 72.4089 168.879 71.7058 165.648 71.7058C164.087 71.7058 162.164 72.0261 159.862 72.6745C157.56 73.3229 155.164 74.4165 152.665 75.9633C152.784 74.3072 152.784 73.0026 152.665 72.0495C145.705 72.2526 141.922 72.4792 141.315 72.7292C140.708 72.9792 140.4 73.5104 140.4 74.3306C140.4 75.2368 140.605 76.1508 141.015 77.057C142.529 77.057 143.585 77.6351 144.192 78.7912C144.799 79.9474 145.106 83.7049 145.106 90.056C145.106 94.0479 145.051 97.9226 144.933 101.665H142.426C141.717 101.665 141.204 101.821 140.881 102.125C140.558 102.43 140.4 102.938 140.4 103.641C140.4 104.485 140.605 105.375 141.015 106.328H157.198C158.159 106.328 158.806 106.172 159.137 105.852C159.468 105.531 159.633 104.977 159.633 104.18C159.633 103.25 159.436 102.407 159.05 101.657H154.959C154.849 98.3211 154.786 95.2197 154.786 92.3606V85.5173C154.786 82.5175 155.259 80.5489 156.197 79.6115C157.135 78.6662 158.419 78.1975 160.043 78.1975C161.966 78.1975 163.362 78.9865 164.213 80.5645C165.072 82.1425 165.498 85.2439 165.498 89.8764V101.891C165.498 103.368 165.679 104.414 166.05 105.039C166.412 105.664 167.09 106.031 168.075 106.149C169.061 106.266 171.41 106.32 175.114 106.32C176.628 106.32 177.652 106.172 178.188 105.875C178.724 105.578 178.992 105.024 178.992 104.203C178.992 103.321 178.819 102.469 178.48 101.649L178.488 101.657Z" fill="#231F20"/>
<path d="M88.7161 53.3399C89.7644 53.3399 90.6078 52.504 90.6078 51.465V46.5747H102.952L107.602 54.5585C108.17 55.6053 109.21 56.2459 110.345 56.2459C111.48 56.2459 112.521 55.6053 113.088 54.5585L117.731 46.5747H125.219C127.749 46.5747 129.807 44.5671 129.807 42.0907V10.4289C129.807 7.96036 127.749 5.94488 125.219 5.94488H90.6V1.87486C90.6078 0.835877 89.7644 0 88.7161 0H38.7736C37.7331 0 36.8818 0.835877 36.8818 1.87486V51.465C36.8818 52.504 37.7252 53.3399 38.7736 53.3399H59.0312L64.0838 63.2298C64.5567 64.1516 65.3213 64.1516 65.7943 63.2298L70.8468 53.3399H88.7082H88.7161ZM90.6078 11.4132H124.297V41.1064H114.547L110.345 48.3324L106.144 41.1064H90.6157V11.4132H90.6078ZM55.2398 40.4502C54.3333 40.9658 53.5924 40.5361 53.5924 39.5049V13.8349C53.5924 12.7959 54.3254 12.3741 55.2398 12.8897L77.9803 25.7403C78.4296 25.9981 78.6582 26.334 78.6582 26.6699C78.6582 27.0058 78.4296 27.3418 77.9803 27.5995L55.2398 40.4502Z" fill="#231F20"/>
<path d="M86.256 86.0954C82.9769 84.9392 80.8881 83.9862 79.9895 83.2362C79.083 82.4863 78.6338 81.6035 78.6338 80.5802C78.6338 79.5568 78.9727 78.8537 79.6427 78.3303C80.3206 77.8069 81.3532 77.5491 82.7483 77.5491C85.381 77.5491 89.1724 78.6272 94.1147 80.7833C95.4231 79.1271 96.0695 77.4944 96.0695 75.8852C96.0695 74.3619 95.1315 73.2838 93.2555 72.6354C91.3795 71.987 88.7074 71.6667 85.2549 71.6667C80.1945 71.6667 76.2375 72.6276 73.3841 74.5415C70.5307 76.4633 69.104 79.0334 69.104 82.2519C69.104 84.5408 69.8213 86.4235 71.248 87.8843C72.6826 89.3451 75.0631 90.7122 78.413 91.9856C81.5266 93.1652 83.7888 94.1417 85.1997 94.9151C86.6107 95.6884 87.3122 96.7196 87.3122 98.0164C87.3122 99.1257 86.9102 99.9225 86.1141 100.399C85.3101 100.876 84.1908 101.118 82.7483 101.118C79.2249 101.118 75.1813 100.157 70.6253 98.2273C69.506 99.5866 68.9385 100.977 68.9385 102.383C68.9621 104.266 69.9159 105.508 71.7919 106.11C73.6679 106.711 76.8208 107.016 81.2428 107.016C86.0274 107.016 89.8267 106.11 92.6328 104.289C95.4389 102.477 96.842 99.86 96.842 96.4618C96.842 93.9464 96.038 91.9153 94.4221 90.3685C92.8062 88.8217 90.0868 87.4078 86.2639 86.111L86.256 86.0954Z" fill="#231F20"/>
<path d="M51.7317 100.938C48.5 100.938 46.2456 100.094 44.9608 98.3992C43.676 96.7118 43.006 94.376 42.935 91.4075H55.7123C58.8022 91.4075 60.8043 90.9231 61.7265 89.9467C62.6409 88.9702 63.0981 87.3375 63.0981 85.0408C63.0981 80.4083 62.0182 77.0257 59.8663 74.8774C57.7144 72.737 54.2541 71.6589 49.4931 71.6589C44.1568 71.6589 39.9003 73.3463 36.7316 76.7132C33.5629 80.088 31.9707 84.7517 31.9707 90.72C31.9707 96.6884 33.3816 100.579 36.1956 103.079C39.0096 105.578 43.5341 106.82 49.7611 106.82C53.3791 106.82 56.5321 106.461 59.2278 105.75C61.9157 105.031 63.2636 103.774 63.2636 101.954C63.2636 100.618 62.6645 99.3678 61.4743 98.2117C58.1322 100.024 54.8768 100.938 51.716 100.938H51.7317ZM44.2435 79.5959C45.1342 78.2366 46.4269 77.5491 48.1216 77.5491C49.7217 77.5491 50.975 78.1116 51.8657 79.2365C52.7564 80.3614 53.2057 81.9394 53.2057 83.9862C53.2057 84.8064 53.0875 85.3845 52.8589 85.736C52.6303 86.0876 51.8421 86.3375 50.51 86.486C49.17 86.6344 47.2309 86.7047 44.6849 86.7047H42.8641C42.8877 83.3221 43.3449 80.9551 44.2356 79.588L44.2435 79.5959Z" fill="#231F20"/>
<path d="M26.2797 71.698C24.4904 71.698 22.4331 71.9949 20.1 72.5807C17.7668 73.1745 15.1499 74.3072 12.2649 75.9867C12.3832 74.3072 12.3832 72.987 12.2649 72.0339C5.30481 72.237 1.52129 72.4636 0.914351 72.7136C0.307411 72.9713 0 73.5026 0 74.3228C0 75.229 0.204941 76.143 0.614822 77.0492C2.12823 77.0492 3.18446 77.6273 3.7914 78.7834C4.39834 79.9396 4.69787 83.6971 4.69787 90.0482C4.69787 94.4541 4.6427 98.3211 4.52446 101.657H2.01788C1.30847 101.657 0.796116 101.813 0.47294 102.118C0.157647 102.422 0 102.93 0 103.633C0 104.477 0.204941 105.367 0.614822 106.32H18.1373C19.0989 106.32 19.7453 106.164 20.0763 105.844C20.4074 105.524 20.5729 104.969 20.5729 104.172C20.5729 103.243 20.368 102.399 19.9502 101.649H14.5587C14.4404 98.3132 14.3853 94.3448 14.3853 89.7357C14.3853 84.6971 14.8346 81.5723 15.741 80.3536C16.6475 79.1428 17.9481 78.5334 19.6428 78.5334C20.7384 79.963 21.3848 80.7208 21.5818 80.8145C21.7789 80.9083 22.4804 80.8614 23.6943 80.6817C24.9082 80.502 25.791 80.213 26.3585 79.8302C26.9182 79.4474 27.3911 78.5725 27.7695 77.2288C28.1478 75.8774 28.337 74.5806 28.337 73.3307C28.337 72.6276 28.1951 72.1823 27.9271 71.987C27.6512 71.7917 27.0995 71.698 26.2797 71.698Z" fill="#231F20"/>
<path d="M120.23 71.6667C114.531 71.6667 110.101 73.401 106.956 76.8617C103.811 80.3224 102.234 85.197 102.234 91.4856C102.234 96.5243 103.535 100.368 106.136 103.024C108.737 105.68 112.6 107.008 117.731 107.008C123.43 107.008 127.852 105.274 130.989 101.813C134.126 98.3523 135.695 93.4777 135.695 87.1891C135.695 82.1504 134.402 78.3069 131.817 75.6508C129.231 72.9948 125.369 71.6667 120.238 71.6667H120.23ZM123.469 98.9148C122.563 100.376 121.184 101.11 119.331 101.11C117.179 101.11 115.603 100.126 114.61 98.1492C113.616 96.1728 113.112 92.884 113.112 88.2749C113.112 84.0565 113.561 81.2129 114.468 79.7443C115.374 78.2756 116.754 77.5491 118.606 77.5491C120.758 77.5491 122.334 78.5334 123.328 80.5099C124.321 82.4863 124.817 85.7751 124.817 90.3841C124.817 94.6026 124.368 97.4461 123.462 98.9148H123.469Z" fill="#231F20"/>
<path d="M178.488 101.657C177.116 101.68 176.218 101.258 175.808 100.383C175.398 99.5085 175.193 93.4855 175.193 82.3222C175.193 78.0569 174.413 75.2212 172.844 73.815C171.276 72.4089 168.879 71.7058 165.648 71.7058C164.087 71.7058 162.164 72.0261 159.862 72.6745C157.56 73.3229 155.164 74.4165 152.665 75.9633C152.784 74.3072 152.784 73.0026 152.665 72.0495C145.705 72.2526 141.922 72.4792 141.315 72.7292C140.708 72.9792 140.4 73.5104 140.4 74.3306C140.4 75.2368 140.605 76.1508 141.015 77.057C142.529 77.057 143.585 77.6351 144.192 78.7912C144.799 79.9474 145.106 83.7049 145.106 90.056C145.106 94.0479 145.051 97.9226 144.933 101.665H142.426C141.717 101.665 141.204 101.821 140.881 102.125C140.558 102.43 140.4 102.938 140.4 103.641C140.4 104.485 140.605 105.375 141.015 106.328H157.198C158.159 106.328 158.806 106.172 159.137 105.852C159.468 105.531 159.633 104.977 159.633 104.18C159.633 103.25 159.436 102.407 159.05 101.657H154.959C154.849 98.3211 154.786 95.2197 154.786 92.3606V85.5173C154.786 82.5175 155.259 80.5489 156.197 79.6115C157.135 78.6662 158.419 78.1975 160.043 78.1975C161.966 78.1975 163.362 78.9865 164.213 80.5645C165.072 82.1425 165.498 85.2439 165.498 89.8764V101.891C165.498 103.368 165.679 104.414 166.05 105.039C166.412 105.664 167.09 106.031 168.075 106.149C169.061 106.266 171.41 106.32 175.114 106.32C176.628 106.32 177.652 106.172 178.188 105.875C178.724 105.578 178.992 105.024 178.992 104.203C178.992 103.321 178.819 102.469 178.48 101.649L178.488 101.657Z" fill="#231F20"/>
<path d="M88.7161 53.3399C89.7644 53.3399 90.6078 52.504 90.6078 51.465V46.5747H102.952L107.602 54.5585C108.17 55.6053 109.21 56.2459 110.345 56.2459C111.48 56.2459 112.521 55.6053 113.088 54.5585L117.731 46.5747H125.219C127.749 46.5747 129.807 44.5671 129.807 42.0907V10.4289C129.807 7.96036 127.749 5.94488 125.219 5.94488H90.6V1.87486C90.6078 0.835877 89.7644 0 88.7161 0H38.7736C37.7331 0 36.8818 0.835877 36.8818 1.87486V51.465C36.8818 52.504 37.7252 53.3399 38.7736 53.3399H59.0312L64.0838 63.2298C64.5567 64.1516 65.3213 64.1516 65.7943 63.2298L70.8468 53.3399H88.7082H88.7161ZM90.6078 11.4132H124.297V41.1064H114.547L110.345 48.3324L106.144 41.1064H90.6157V11.4132H90.6078ZM55.2398 40.4502C54.3333 40.9658 53.5924 40.5361 53.5924 39.5049V13.8349C53.5924 12.7959 54.3254 12.3741 55.2398 12.8897L77.9803 25.7403C78.4296 25.9981 78.6582 26.334 78.6582 26.6699C78.6582 27.0058 78.4296 27.3418 77.9803 27.5995L55.2398 40.4502Z" fill="#231F20"/>
<path d="M86.256 86.0954C82.9769 84.9392 80.8881 83.9862 79.9895 83.2362C79.083 82.4863 78.6338 81.6035 78.6338 80.5802C78.6338 79.5568 78.9727 78.8537 79.6427 78.3303C80.3206 77.8069 81.3532 77.5491 82.7483 77.5491C85.381 77.5491 89.1724 78.6272 94.1147 80.7833C95.4231 79.1271 96.0695 77.4944 96.0695 75.8852C96.0695 74.3619 95.1315 73.2838 93.2555 72.6354C91.3795 71.987 88.7074 71.6667 85.2549 71.6667C80.1945 71.6667 76.2375 72.6276 73.3841 74.5415C70.5307 76.4633 69.104 79.0334 69.104 82.2519C69.104 84.5408 69.8213 86.4235 71.248 87.8843C72.6826 89.3451 75.0631 90.7122 78.413 91.9856C81.5266 93.1652 83.7888 94.1417 85.1997 94.9151C86.6107 95.6884 87.3122 96.7196 87.3122 98.0164C87.3122 99.1257 86.9102 99.9225 86.1141 100.399C85.3101 100.876 84.1908 101.118 82.7483 101.118C79.2249 101.118 75.1813 100.157 70.6253 98.2273C69.506 99.5866 68.9385 100.977 68.9385 102.383C68.9621 104.266 69.9159 105.508 71.7919 106.11C73.6679 106.711 76.8208 107.016 81.2428 107.016C86.0274 107.016 89.8267 106.11 92.6328 104.289C95.4389 102.477 96.842 99.86 96.842 96.4618C96.842 93.9464 96.038 91.9153 94.4221 90.3685C92.8062 88.8217 90.0868 87.4078 86.2639 86.111L86.256 86.0954Z" fill="#231F20"/>
</g>
</g>
<defs>
<clipPath id="clip0_64_108">
<rect width="179" height="107" fill="white"/>
</clipPath>
</defs>
</svg>
